# AST/ASF file generated using VICON BodyLanguage
# -----------------------------------------------
:version 1.10
:name VICON
:units
  mass 1.0
  length 0.45
  angle deg
:documentation
   .ast/.asf automatically generated from VICON data using
   VICON BodyBuilder and BodyLanguage model FoxedUp or BRILLIANT.MOD
:root
   order TX TY TZ RX RY RZ
   axis XYZ
   position 0 0 0  
   orientation 0 0 0 
:bonedata
  begin
     id 1 
     name lhipjoint
     direction 0.543289 -0.788407 0.288535 
     length 2.57127 
     axis 0 0 0  XYZ
  end
  begin
     id 2 
     name lfemur
     direction 0.34202 -0.939693 0  
     length 8.47298  
     axis 0 0 20  XYZ
    dof rx ry rz
    limits (-160.0 20.0)
           (-70.0 70.0)
           (-60.0 70.0)
  end
  begin
     id 3 
     name ltibia
     direction 0.34202 -0.939693 0   
     length 8.13367   
     axis 0 0 20   XYZ
    dof rx
    limits (-10.0 170.0)
  end
  begin
     id 4 
     name lfoot
     direction 0.114037 -0.313314 0.942778   
     length 2.67113   
     axis -90 7.62852e-016 20   XYZ
    dof rx rz
    limits (-45.0 90.0)
           (-70.0 20.0)
  end
  begin
     id 5 
     name ltoes
     direction 1.536e-011 -4.21847e-011 1   
     length 1.32217   
     axis -90 7.62852e-016 20   XYZ
    dof rx
    limits (-90.0 20.0)
  end
  begin
     id 6 
     name rhipjoint
     direction -0.571293 -0.770752 0.282074   
     length 2.63017  
     axis 0 0 0  XYZ 
  end
  begin
     id 7 
     name rfemur
     direction -0.34202 -0.939693 0   
     length 8.60885   
     axis 0 0 -20   XYZ
    dof rx ry rz
    limits (-160.0 20.0)
           (-70.0 70.0)
           (-70.0 60.0)
  end
  begin
     id 8 
     name rtibia
     direction -0.34202 -0.939693 0   
     length 8.07673   
     axis 0 0 -20   XYZ
    dof rx
    limits (-10.0 170.0)
 end
 begin
     id 9 
     name rfoot
     direction -0.121336 -0.333368 0.934956   
     length 2.81602  
     axis -90 -7.62852e-016 -20   XYZ
    dof rx rz
    limits (-45.0 90.0)
           (-20.0 70.0)
  end
  begin
     id 10 
     name rtoes
     direction -1.53491e-011 -4.21808e-011 1   
     length 1.38905   
     axis -90 -7.62852e-016 -20   XYZ
    dof rx
    limits (-90.0 20.0)
  end
  begin
     id 11 
     name lowerback
     direction 0.0136776 0.999869 -0.00861835   
     length 2.14087   
     axis 0 0 0   XYZ
    dof rx ry rz
    limits (-20.0 45.0)
           (-30.0 30.0)
           (-30.0 30.0)
  end
  begin
     id 12 
     name upperback
     direction -0.00789158 0.999804 0.0181308   
     length 2.14151   
     axis 0 0 0   XYZ
    dof rx ry rz
    limits (-20.0 45.0)
           (-30.0 30.0)
           (-30.0 30.0)
  end
  begin
     id 13 
     name thorax
     direction -0.0135231 0.999666 0.0220247   
     length 2.13644   
     axis 0 0 0   XYZ
    dof rx ry rz
    limits (-20.0 45.0)
           (-30.0 30.0)
           (-30.0 30.0)
  end
  begin
     id 14 
     name lowerneck
     direction -0.0392259 0.997317 0.0618018   
     length 1.65045   
     axis 0 0 0   XYZ
    dof rx ry rz
    limits (-20.0 45.0)
           (-30.0 30.0)
           (-30.0 30.0)
  end
  begin
     id 15 
     name upperneck
     direction 0.0765547 0.994276 -0.0745319   
     length 1.66045   
     axis 0 0 0   XYZ
    dof rx ry rz
    limits (-20.0 45.0)
           (-30.0 30.0)
           (-30.0 30.0)
  end
  begin
     id 16
     name head
     direction 0.0241564 0.999031 -0.036785  
     length 1.66594  
     axis 0 0 0   XYZ
    dof rx ry rz
    limits (-20.0 45.0)
           (-30.0 30.0)
           (-30.0 30.0)
  end
  begin
     id 17 
     name lclavicle
     direction 0.967398 0.249018 0.0461573  
     length 3.75176  
     axis 0 0 0   XYZ
    dof ry rz
    limits (-20.0 10.0)
           (0.0 20.0)
  end
  begin
     id 18 
     name lhumerus
     direction 1 -4.48963e-011 -3.05005e-027   
     length 5.93342   
     axis 180 -30 -90   XYZ
    dof rx ry rz
    limits (-60.0 90.0)
           (-90.0 90.0)
           (-90.0 90.0)
  end
  begin
     id 19
     name lradius
     direction 1 -4.48957e-011 1.07006e-026   
     length 3.94763   
     axis 180 -30 -90   XYZ
    dof rx
    limits (-10.0 170.0)
  end
  begin
     id 20
     name lwrist
     direction 1 -4.48978e-011 1.92422e-026   
     length 1.97382   
     axis -1.18182e-014 90 90   XYZ
    dof ry
    limits (-180.0 0.0)
 end
  begin
     id 21 
     name lhand
     direction 1 -4.48931e-011 3.84844e-026   
     length 0.560187   
     axis -2.45563e-014 90 90   XYZ
    dof rx rz
    limits (-90.0 90.0)
           (-45.0 45.0)
  end
  begin
     id 22 
     name lfingers
     direction 1 -4.48952e-011 7.69687e-026   
     length 0.451637   
     axis -4.91126e-014 90 90   XYZ
    dof rx
    limits (0.0 90.0)
  end
  begin
     id 23
     name lthumb
     direction 0.707107 -6.34901e-011 0.707107   
     length 0.648463   
     axis -90 45 2.85299e-015   XYZ
    dof rx rz
    limits (-45.0 45.0)
           (-45.0 45.0)
  end
  begin
     id 24 
     name rclavicle
     direction -0.965946 0.258716 0.00371831   
     length 3.63667  
     axis 0 0 0   XYZ 
    dof ry rz
    limits (-10.0 20.0)
           (-20.0 0.0)
  end
  begin
     id 25 
     name rhumerus
     direction -1 -4.48966e-011 -1.78361e-028  
     length 6.28647   
     axis 180 30 90   XYZ
    dof rx ry rz
    limits (-90.0 60.0)
           (-90.0 90.0)
           (-90.0 90.0)
  end
  begin
     id 26 
     name rradius
     direction -1 -4.48961e-011 1.05248e-026   
     length 3.81645   
     axis 180 30 90   XYZ
    dof rx
    limits (-10.0 170.0)
  end
  begin
     id 27 
     name rwrist
     direction -1 -4.48979e-011 1.92422e-026   
     length 1.90822   
     axis -1.18182e-014 -90 -90   XYZ
    dof ry
    limits (-180.0 0.0)
  end
  begin
     id 28
     name rhand
     direction -1 -4.48937e-011 3.84844e-026   
     length 0.646185   
     axis -2.45563e-014 -90 -90   XYZ
    dof rx rz
    limits (-90.0 90.0)
           (-45.0 45.0)
  end
  begin
     id 29
     name rfingers
     direction -1 -4.48953e-011 7.69687e-026   
     length 0.520971   
     axis -4.91126e-014 -90 -90   XYZ
    dof rx
    limits (0.0 90.0)
  end
  begin
     id 30
     name rthumb
     direction -0.707107 -6.3494e-011 0.707107   
     length 0.748013   
     axis -90 -45 -2.85299e-015   XYZ
    dof rx rz
    limits (-45.0 45.0)
           (-45.0 45.0)
  end
:hierarchy
  begin
    root lhipjoint rhipjoint lowerback
    lhipjoint lfemur
    lfemur ltibia
    ltibia lfoot
    lfoot ltoes
    rhipjoint rfemur
    rfemur rtibia
    rtibia rfoot
    rfoot rtoes
    lowerback upperback
    upperback thorax
    thorax lowerneck lclavicle rclavicle
    lowerneck upperneck
    upperneck head
    lclavicle lhumerus
    lhumerus lradius
    lradius lwrist
    lwrist lhand lthumb
    lhand lfingers
    rclavicle rhumerus
    rhumerus rradius
    rradius rwrist
    rwrist rhand rthumb
    rhand rfingers
  end

#!OML:ASF H:\HAZMAT1\Patient Classification 1\Patient 3\Session 1\dancer.ASF
:FULLY-SPECIFIED
:DEGREES
1
upperback -0.045808 -0.918010 -2.544370
rfoot -31.195801 -16.002100
lradius 79.707001
lthumb 17.763100 38.258202
rradius 20.313000
lwrist 13.893900
rhand -18.465401 -15.891100
rhumerus -63.306499 -0.677883 -63.125999
lowerneck -5.514270 2.791430 6.805880
lhand -8.151480 9.049540
ltibia 57.575802
head 3.182590 1.689710 -1.773340
rwrist 28.941200
lfingers 7.125020
rtoes 5.149810
lowerback 3.988140 -0.765122 4.217020
rfingers 7.125020
lclavicle 0.000000 -0.000000
upperneck 6.276170 3.265890 -2.188590
rfemur -38.620499 20.716000 -2.378900
thorax -2.394050 -0.538909 -4.951400
rclavicle 0.000000 -0.000000
rtibia 64.752701
lfoot -26.105200 -10.707300
lhumerus -20.102600 -20.548800 40.686699
rthumb 7.821160 -45.726398
root -29.243299 18.028500 30.035999 -162.126007 -2.006000 177.518997
ltoes -6.838530
lfemur -55.827702 -32.323101 4.752060
2
upperback -0.104014 -1.377670 -3.067820
rfoot -37.767399 -14.485400
lradius 77.571098
lthumb 16.411900 36.908798
rradius 22.621099
lwrist 10.289100
rhand -15.171700 -16.158001
rhumerus -66.645897 -6.014500 -57.846500
lowerneck 0.431724 12.317800 13.424600
lhand -9.555260 7.583130
ltibia 57.833500
head 2.378150 8.356870 -5.082570
rwrist 26.739000
lfingers 7.125020
rtoes -3.663290
lowerback 3.584150 -1.206140 7.429680
rfingers 7.125020
lclavicle -0.000000 0.000000
upperneck 1.039630 16.723400 -11.991700
rfemur -39.368401 4.917960 21.069599
thorax -2.377460 -0.805909 -7.324690
rclavicle -0.000000 0.000000
rtibia 59.823898
lfoot -11.189000 3.232770
lhumerus -14.995900 -27.528700 46.383400
rthumb 10.999100 -45.849800
root -22.459000 18.091600 30.006500 -158.210007 -68.360001 177.231995
ltoes -4.448490
lfemur -67.781898 -21.444901 5.452480
3
upperback -0.753647 -2.154830 -2.753050
rfoot -28.173500 -23.271000
lradius 70.671600
lthumb 16.396500 35.422401
rradius 17.219500
lwrist 4.881910
rhand -13.259000 -20.903900
rhumerus -66.839104 -6.696230 -51.144001
lowerneck 1.575140 14.556000 12.879500
lhand -9.571210 6.095380
ltibia 61.728901
head 1.593900 9.867010 -5.198130
rwrist 32.308300
lfingers 7.125020
rtoes 9.898410
lowerback 2.987320 -1.780360 7.581270
rfingers 7.125020
lclavicle 0.000000 -0.000000
upperneck -2.325020 19.660101 -12.805000
rfemur -66.819199 -23.767099 35.945301
thorax -2.855740 -1.234550 -7.029890
rclavicle 0.000000 -0.000000
rtibia 66.479897
lfoot -7.247360 29.668200
lhumerus -7.007630 -37.855202 43.951000
rthumb 12.843500 -50.488800
root -16.951200 17.559799 29.940399 16.921700 -67.362503 3.663580
ltoes 17.122000
lfemur -28.856800 -5.697690 0.562570
4
upperback -1.494380 -3.413330 -1.533730
rfoot -20.965099 -31.922501
lradius 62.819599
lthumb 17.081200 36.165001
rradius 18.178400
lwrist 0.582687
rhand -14.456800 -19.689800
rhumerus -65.827797 -8.043240 -58.859798
lowerneck 0.649455 15.065900 11.590900
lhand -8.860030 6.895900
ltibia 24.153500
head 3.409920 10.277600 -4.461100
rwrist 25.849001
lfingers 7.125020
rtoes 9.501120
lowerback 0.638325 -2.629930 8.081530
rfingers 7.125020
lclavicle 0.000000 -0.000000
upperneck 3.508190 20.659599 -12.218100
rfemur -53.197300 -21.343901 3.474810
thorax -2.483260 -1.868460 -6.021020
rclavicle 0.000000 -0.000000
rtibia 43.971001
lfoot -22.010000 27.441999
lhumerus -3.215830 -40.554100 49.341599
rthumb 11.688600 -49.343700
root -11.527600 18.031099 30.764299 15.348600 -32.108200 6.241410
ltoes -4.359820
lfemur -13.650700 -2.336030 -2.388630
5
upperback -1.100660 -3.027780 -1.721590
rfoot -26.615400 -12.144400
lradius 45.847900
lthumb 17.074699 37.839600
rradius 20.281799
lwrist -1.530580
rhand -10.618600 -19.252701
rhumerus -65.678299 -8.012530 -63.621700
lowerneck -2.951390 7.330320 5.194840
lhand -8.866770 8.569920
ltibia 38.453201
head 3.421470 4.878750 -1.543550
rwrist 23.119499
lfingers 7.125020
rtoes 2.502680
lowerback 1.086090 -2.331710 6.060590
rfingers 7.125020
lclavicle -0.000000 0.000000
upperneck 7.524970 9.761010 -3.210110
rfemur -36.875500 -8.905800 12.521000
thorax -2.157270 -1.618390 -5.083930
rclavicle -0.000000 0.000000
rtibia 62.291801
lfoot -17.559700 3.750950
lhumerus -5.709180 -24.431400 46.786598
rthumb 15.387900 -48.660000
root -7.895120 18.621700 31.278900 13.004100 4.063000 4.323070
ltoes -9.359270
lfemur -32.838402 -10.544500 -6.936490
6
upperback -1.051460 -2.206160 -1.405450
rfoot -28.060301 -17.664101
lradius 26.448299
lthumb 9.556610 42.655998
rradius 26.204399
lwrist -17.129400
rhand -19.337000 -24.298401
rhumerus -47.890900 -4.990820 -46.230000
lowerneck -4.359570 -0.772766 0.271566
lhand -16.667000 12.892800
ltibia 42.851799
head 3.526280 -0.514383 0.582330
rwrist 16.707500
lfingers 7.125020
rtoes 20.764400
lowerback -1.433360 -1.614810 4.731870
rfingers 7.125020
lclavicle 0.000000 -0.000000
upperneck 8.498900 -1.234340 2.086400
rfemur -29.197001 4.705970 27.569599
thorax -0.513173 -1.140520 -4.118790
rclavicle 0.000000 -0.000000
rtibia 44.841999
lfoot -20.122700 2.735480
lhumerus -20.666100 5.188800 30.290001
rthumb 6.979840 -54.163399
root -5.843460 18.896700 32.169300 9.991080 17.664200 1.318490
ltoes 0.347231
lfemur -31.615900 -22.544001 -9.799370
7
upperback -1.839190 -2.412890 0.077886
rfoot -29.268999 -22.581301
lradius 22.947500
lthumb 14.816200 46.840000
rradius 47.521900
lwrist -16.297501
rhand -19.273701 -23.041700
rhumerus -32.644402 -1.021120 -54.660900
lowerneck -3.532070 -4.263700 -1.918050
lhand -11.212100 17.389700
ltibia 42.147999
head 3.094590 -2.829660 1.089300
rwrist 11.761800
lfingers 7.125020
rtoes 20.736500
lowerback -2.426050 -1.731430 6.306460
rfingers 7.125020
lclavicle -0.000000 0.000000
upperneck 7.223100 -5.810580 3.026020
rfemur -23.459999 4.502150 27.468700
thorax -0.795602 -1.271400 -3.487400
rclavicle -0.000000 0.000000
rtibia 38.910000
lfoot -20.598801 5.668070
lhumerus -40.556198 16.021799 32.545101
rthumb 7.040910 -52.904598
root -4.808140 19.070000 32.326099 8.240820 24.671801 -1.579010
ltoes 5.122790
lfemur -30.215700 -30.417801 -9.930310
8
upperback -2.139420 -1.732630 -0.490600
rfoot -29.578600 -22.350201
lradius 21.554800
lthumb 15.888200 42.826500
rradius 62.579498
lwrist -21.268700
rhand -19.475800 -19.290001
rhumerus -36.099602 5.508820 -76.347000
lowerneck -2.716810 -5.630410 -3.044250
lhand -10.099100 13.458300
ltibia 42.113400
head 2.547030 -3.744060 1.362130
rwrist 13.546600
lfingers 7.125020
rtoes 19.432800
lowerback -2.997480 -1.209910 5.539530
rfingers 7.125020
lclavicle 0.000000 0.000000
upperneck 5.688350 -7.579750 3.385190
rfemur -23.042801 4.831710 24.769400
thorax -0.705167 -0.931230 -3.649370
rclavicle 0.000000 0.000000
rtibia 38.992401
lfoot -20.316500 6.657140
lhumerus -53.665699 20.990499 44.916401
rthumb 6.845900 -49.159302
root -4.305440 19.090099 32.117500 8.244350 23.836700 -0.885857
ltoes 8.139980
lfemur -29.614599 -30.404301 -12.934000
9
upperback -2.106670 -1.652210 -0.853899
rfoot -27.111799 -25.386900
lradius 23.653700
lthumb 20.987600 40.233299
rradius 48.632301
lwrist -17.414301
rhand -17.392300 -18.392200
rhumerus -38.344398 7.499550 -88.750603
lowerneck -3.027430 -4.443730 -3.177040
lhand -4.797910 11.348900
ltibia 42.260300
head 1.471580 -2.920350 1.253140
rwrist 18.195801
lfingers 7.125020
rtoes 16.622900
lowerback -2.098450 -1.181830 5.975010
rfingers 7.125020
lclavicle -0.000000 0.000000
upperneck 2.479530 -5.880290 2.726710
rfemur -28.059000 10.704800 21.068899
thorax -1.192630 -0.914477 -4.247610
rclavicle -0.000000 0.000000
rtibia 40.963799
lfoot -18.716499 3.423000
lhumerus -51.425701 14.731000 68.553001
rthumb 8.856840 -48.186298
root -3.918540 19.092100 31.536100 10.420800 18.544800 -0.003744
ltoes 7.504980
lfemur -32.664200 -25.523399 -14.420700
10
upperback -2.219650 -2.983440 -1.094500
rfoot -20.353100 -24.277201
lradius 30.125200
lthumb 10.938000 45.230801
rradius 34.937199
lwrist -13.160500
rhand -18.468100 -22.851000
rhumerus -42.155201 5.378380 -89.574699
lowerneck -2.014920 -3.130750 -2.236550
lhand -15.235100 15.535700
ltibia 60.801399
head 0.177068 -2.051420 1.141700
rwrist 11.099500
lfingers 7.125020
rtoes 13.444100
lowerback -0.350923 -2.258860 5.877950
rfingers 7.125020
lclavicle -0.000000 0.000000
upperneck -0.853860 -4.126910 2.628280
rfemur -32.554298 10.448900 17.993299
thorax -2.457660 -1.623630 -4.362810
rclavicle -0.000000 0.000000
rtibia 39.547600
lfoot -12.135500 3.648850
lhumerus -41.882198 7.846450 73.748100
rthumb 7.818530 -52.686501
root -3.562220 19.143400 30.270901 11.023800 15.934800 -0.265048
ltoes 10.161000
lfemur -29.972300 -14.045500 -13.629900
